<svg width="14" height="14" viewBox="0 0 14 14" fill="none" xmlns="http://www.w3.org/2000/svg">
<path d="M10.1112 12.4448C10.1112 13.6523 11.4875 14.5385 12.7563 13.621C12.7888 13.5972 12.8187 13.5673 12.8425 13.5347C13.76 12.2648 12.8738 10.8898 11.6663 10.8898C10.8075 10.8885 10.1112 11.5848 10.1112 12.4448ZM2.33375 12.4448C2.33375 13.6523 3.71 14.5385 4.97875 13.621C5.01125 13.5972 5.04125 13.5673 5.065 13.5347C5.9825 12.2648 5.09625 10.8898 3.88875 10.8898C3.03 10.8885 2.33375 11.5848 2.33375 12.4448ZM5.0925 8.6885L13.7013 6.22975C13.8737 6.17225 13.9925 6.01475 14.0013 5.8335V1.92975C14.0013 1.72226 13.8338 1.55476 13.6263 1.55476H3.48625C3.27875 1.55476 3.11125 1.38726 3.11125 1.17976V0.311006C3.11 0.139756 2.9725 0.00100586 2.80125 -0.000244141H0.31125C0.13875 -0.000244141 0 0.139756 0 0.311006V1.18101C0 1.38851 0.1675 1.55601 0.375 1.55601H1.2525C1.43 1.55601 1.5825 1.67976 1.61875 1.85226L3.0375 8.501C3.04 8.51475 3.0425 8.52975 3.04375 8.5435L3.11 9.23725C3.11125 9.2485 3.11125 9.261 3.11125 9.27225V10.5373C3.1125 10.7085 3.25125 10.8473 3.4225 10.8485H13.6888C13.86 10.8473 13.9987 10.7085 14 10.5373V9.70725C14 9.49975 13.8325 9.33225 13.625 9.33225H5.25C4.355 9.33225 4.3375 8.9035 5.09 8.6885H5.0925Z" fill="white"/>
</svg>
